<?xml version="1.0" standalone="no"?>
<!DOCTYPE svg PUBLIC "-//W3C//DTD SVG 20010904//EN"
 "http://www.w3.org/TR/2001/REC-SVG-20010904/DTD/svg10.dtd">
<svg version="1.0" xmlns="http://www.w3.org/2000/svg"
 width="1834.000000pt" height="426.000000pt" viewBox="0 0 1834.000000 426.000000"
 preserveAspectRatio="xMidYMid meet">
<metadata>
Created by potrace 1.15, written by Peter Selinger 2001-2017
</metadata>
<g transform="translate(0.000000,426.000000) scale(0.100000,-0.100000)"
fill="#000000" stroke="none">
<path d="M2678 4253 c12 -2 22 -6 22 -9 0 -2 -55 -92 -122 -200 l-123 -197 -5
174 c-4 130 -6 78 -8 -203 l-2 -378 415 0 415 0 0 410 0 410 -262 -1 -263 0
-145 -235 c-80 -129 -146 -228 -148 -219 -2 8 55 108 126 223 71 114 132 213
136 220 5 9 -2 12 -26 11 -23 -1 -26 -3 -10 -6z"/>
<path d="M1628 2467 l-368 -589 0 -199 0 -199 389 0 388 0 7 108 c3 59 2 373
-4 697 -7 461 -12 610 -25 679 -8 50 -17 91 -18 91 -1 1 -167 -263 -369 -588z"/>
<path d="M2460 1560 l0 -1420 410 0 410 0 0 1420 0 1420 -410 0 -410 0 0
-1420z"/>
<path d="M850 1304 c0 -17 -122 -222 -349 -585 l-350 -559 980 0 979 0 0 435
0 435 -625 0 -625 0 -1 118 c-1 64 0 132 1 150 1 17 -1 32 -4 32 -3 0 -6 -12
-6 -26z m-326 -605 c-380 -608 -330 -532 -343 -528 -5 2 142 246 327 543 185
296 338 532 340 524 2 -8 -144 -251 -324 -539z"/>
</g>
</svg>
