<?xml version="1.0" encoding="UTF-8"?>
<!DOCTYPE svg PUBLIC "-//W3C//DTD SVG 1.1//EN" "http://www.w3.org/Graphics/SVG/1.1/DTD/svg11.dtd">
<!-- Creator: CorelDRAW 2019 (64-Bit) -->
<svg xmlns="http://www.w3.org/2000/svg" xml:space="preserve" width="2.3889in" height="2.3889in" version="1.1" style="shape-rendering:geometricPrecision; text-rendering:geometricPrecision; image-rendering:optimizeQuality; fill-rule:evenodd; clip-rule:evenodd"
viewBox="0 0 2388.9 2388.9"
 xmlns:xlink="http://www.w3.org/1999/xlink"
 xmlns:xodm="http://www.corel.com/coreldraw/odm/2003">
 <defs>
  <style type="text/css">
   <![CDATA[
    .fil0 {fill:white}
    .fil1 {fill:url(#id0)}
   ]]>
  </style>
  <linearGradient id="id0" gradientUnits="userSpaceOnUse" x1="1284.68" y1="1177.78" x2="764.35" y2="853.06">
   <stop offset="0" style="stop-opacity:1; stop-color:#0092DB"/>
   <stop offset="0.568627" style="stop-opacity:1; stop-color:#00B4C2"/>
   <stop offset="1" style="stop-opacity:1; stop-color:#01D7A8"/>
  </linearGradient>
 </defs>
 <g id="Layer_x0020_1">
  <metadata id="CorelCorpID_0Corel-Layer"/>
  <g id="_2974321615664">
   <circle class="fil0" cx="1192.23" cy="1196.67" r="946.58"/>
   <path class="fil1" d="M751.69 644.66c-3.96,10.72 -3.66,186.23 -0.98,207.69 20.7,3.76 57.04,-0.68 114.28,-0.43 84.61,0.37 157.41,38.77 195.97,108.02 22.19,39.86 29.3,71.32 29.17,124.96 -0.1,43.19 -2.83,282.76 0.87,304.44l208.14 0.52c2.35,-25.37 0.45,-165.57 0.45,-202.92 0,-171.54 7.04,-264.41 -107.7,-401.02 -44.93,-53.49 -121.51,-102.86 -186.06,-122.39 -66.69,-20.18 -110.76,-21.32 -184.2,-21.32 -52.16,0 -50.19,-4.03 -69.94,2.44zm659.26 -5.38l220.76 0 0 220.76 -220.76 0 0 -220.76zm3.49 1114.28l220.35 0.48 0.97 -768.17 -221.02 -0.81 -0.3 768.5zm-656.08 -6.36l559.63 -0.22 0.63 -107.03 0 -125 -340.05 -0.72c0.62,-127.47 0.31,-255.57 0.02,-383.41 -0.15,-65.67 7.86,-118.8 -42.77,-147.34 -24.92,-14.05 -47.46,-11.81 -81.03,-11.81 -31.93,0 -64.06,-0.35 -95.96,0.05 -3.41,12.64 -5.5,748 -0.48,775.48z"/>
  </g>
 </g>
</svg>
